<svg width="125" height="36" viewBox="0 0 125 36" fill="none" xmlns="http://www.w3.org/2000/svg">
<g clip-path="url(#clip0_3_13)">
<path d="M0 10.8V21.6H7.71791C15.4358 21.6 15.4358 21.6 15.4358 19.8002C15.4358 18.144 15.2154 18.0722 9.77585 17.8562L4.04254 17.6402V15.12V12.5999L8.30558 12.3839C12.2015 12.1679 12.4953 12.0242 12.4953 10.4399C12.4953 8.71196 12.2748 8.63998 8.08507 8.63998H3.67483V6.11997V3.59996H9.55534C15.362 3.59996 15.4358 3.59996 15.4358 1.79998V0H7.71791H0V10.8Z" fill="#2F2F2F"/>
<path d="M20.5807 10.8V21.6H26.4063C34.925 21.6 34.9875 21.5282 34.9875 10.8719C34.9875 2.01955e-06 34.9875 0 26.6567 0H20.5807V10.8ZM31.1043 4.46396C31.5425 4.96799 31.8559 7.48795 31.8559 10.8C31.8559 14.1118 31.5425 16.632 31.1043 17.1358C30.6654 17.6402 28.9742 17.9998 27.3459 17.9998H24.3391V10.8V3.59996H27.3459C28.9742 3.59996 30.6654 3.95997 31.1043 4.46396Z" fill="#2F2F2F"/>
<path d="M40.1337 10.0799C40.1337 21.8872 39.919 21.5994 48.3654 21.5994C56.8123 21.5994 56.5976 21.8872 56.5976 10.0799V0H54.4501H52.3741L52.1593 8.78369L51.9446 17.6397H48.3654H44.7866L44.5719 8.78369L44.3572 0H42.2811H40.1337V10.0799Z" fill="#2F2F2F"/>
<path d="M61.7438 10.8V21.6H63.5338C65.2518 21.6 65.3232 21.384 65.3232 17.28V12.96H69.6185H73.9136V17.28V21.6H76.0611H78.2087V10.8V0H76.0611H73.9136V4.31999V8.63998H69.6185H65.3232V4.31999C65.3232 0.216 65.2518 0 63.5338 0H61.7438V10.8Z" fill="#2F2F2F"/>
<path d="M86.4402 9.35996C86.4402 21.384 86.5776 21.6 94.9475 21.6C102.768 21.6 102.905 21.384 102.905 9.21594V0H100.847H98.8578L98.652 8.78395L98.4463 17.6402H94.6727H90.8997L90.6938 8.78395L90.488 0H88.4984H86.4402V9.35996Z" fill="#2F2F2F"/>
<path d="M107.022 10.8V21.6H114.324C123.832 21.6 124.516 21.2398 124.516 15.984C124.516 13.6798 124.136 11.448 123.68 11.016C123.071 10.4399 123.071 10.0802 123.68 9.79185C124.136 9.50403 124.516 7.41596 124.516 5.03997C124.516 1.94399 124.212 0.79196 123.299 0.431997C122.614 0.215997 118.735 0 114.552 0H107.022V10.8ZM120.333 6.11997C120.333 8.27996 120.256 8.27996 115.997 8.49596L111.586 8.71196V6.11997V3.52798L115.997 3.74397C120.256 3.95997 120.333 3.95997 120.333 6.11997ZM120.333 15.12V17.6402L115.997 17.8562L111.586 18.0722V15.12V12.1679L115.997 12.3839L120.333 12.5999V15.12Z" fill="#2F2F2F"/>
<path d="M15.1058 26.2933C12.1438 27.4738 11.2882 32.5236 13.6579 34.8846C15.1058 36.3271 18.8578 36.3931 19.3846 34.9499C19.5821 34.3597 19.1872 34.2289 18.0023 34.491C15.962 35.0159 14.2503 33.376 14.2503 30.9497C14.2503 28.6543 15.3695 27.6051 17.6731 27.6051C19.6478 27.6051 20.1746 26.6868 18.4629 26.0311C17.2124 25.5722 16.9493 25.5722 15.1058 26.2933Z" fill="#2F2F2F"/>
<path d="M24.733 26.3471C23.8066 26.8784 23.1117 28.0737 22.7644 29.6673C22.0112 32.9877 23.6329 35.7098 26.5862 35.9758C29.192 36.2412 30.8133 34.3154 30.8133 30.7296C30.8133 26.7455 27.8022 24.5542 24.733 26.3471ZM28.9023 29.2027C29.4812 30.5972 29.4235 31.2611 28.7285 32.6555C27.6285 34.9131 25.8913 34.9131 24.7907 32.6555C23.5747 30.2649 24.6753 27.4761 26.7599 27.4761C27.8022 27.4761 28.4389 28.0074 28.9023 29.2027Z" fill="#2F2F2F"/>
<path d="M35.9587 30.8572C35.9587 34.9714 36.1404 36 36.8668 36C37.5932 36 37.7748 35.1088 37.8352 32.023L37.8956 28.1144L39.1064 32.023C39.7724 34.2174 40.6197 36 41.0437 36C41.4672 36 42.3753 34.0801 43.0413 31.68L44.3126 27.4289L44.3729 31.68C44.4333 35.0404 44.6149 36 45.3413 36C46.0677 36 46.2493 34.9714 46.2493 30.8572C46.2493 25.92 46.1889 25.7142 44.8574 25.7142C43.7068 25.7142 43.2833 26.3314 42.3753 29.486C41.8305 31.5432 41.2253 33.2573 41.1041 33.2573C40.9828 33.2573 40.3776 31.5432 39.8328 29.486C38.9248 26.3314 38.5012 25.7142 37.3508 25.7142C36.0191 25.7142 35.9587 25.92 35.9587 30.8572Z" fill="#2F2F2F"/>
<path d="M50.3657 30.8572C50.3657 34.9714 50.5836 36 51.4553 36C52.3271 36 52.545 35.1088 52.6174 32.023L52.6899 28.1144L54.1429 32.023C54.9422 34.2174 55.9587 36 56.4676 36C56.9759 36 58.0655 34.0801 58.8648 31.68L60.3903 27.4289L60.4628 31.68C60.5352 35.0404 60.7531 36 61.6248 36C62.4964 36 62.7145 34.9714 62.7145 30.8572C62.7145 25.92 62.642 25.7142 61.044 25.7142C59.6635 25.7142 59.1551 26.3314 58.0655 29.486C57.4118 31.5432 56.6855 33.2573 56.5401 33.2573C56.3946 33.2573 55.6684 31.5432 55.0147 29.486C53.925 26.3314 53.4167 25.7142 52.0362 25.7142C50.4382 25.7142 50.3657 25.92 50.3657 30.8572Z" fill="#2F2F2F"/>
<path d="M64.772 29.486C64.772 33.7372 66.3392 36 69.4025 36C72.4664 36 74.0335 33.7372 74.0335 29.486C74.0335 26.606 73.8197 25.7142 72.9649 25.7142C72.181 25.7142 71.8962 26.606 71.8962 29.4172C71.8962 33.5314 70.5427 35.4517 68.4765 34.1485C67.6215 33.6688 67.1941 32.2972 67.0514 29.5544C66.9094 26.7428 66.5529 25.7142 65.8406 25.7142C65.0568 25.7142 64.772 26.6744 64.772 29.486Z" fill="#2F2F2F"/>
<path d="M77.1213 30.8572C77.1213 34.903 77.2977 36 78.0033 36C78.5917 36 78.8853 34.9714 79.0031 32.1603L79.1795 28.3201L80.9436 32.023C82.1784 34.4232 83.1782 35.7258 84.0602 35.8632C85.2951 36.0689 85.3538 35.8632 85.3538 30.926C85.3538 26.7428 85.1774 25.7142 84.4717 25.7142C83.766 25.7142 83.5897 26.606 83.5897 29.6228L83.531 33.6004L81.6492 29.6917C80.238 26.6744 79.4146 25.7142 78.4739 25.7142C77.1803 25.7142 77.1213 25.9889 77.1213 30.8572Z" fill="#2F2F2F"/>
<path d="M89.4695 30.8572C89.4695 34.9714 89.5723 36 89.984 36C90.3957 36 90.4985 34.9714 90.4985 30.8572C90.4985 26.7428 90.3957 25.7142 89.984 25.7142C89.5723 25.7142 89.4695 26.7428 89.4695 30.8572Z" fill="#2F2F2F"/>
<path d="M93.5852 26.4004C93.5852 26.7428 94.1255 27.0858 94.7859 27.0858C95.8665 27.0858 95.9867 27.5657 95.9867 31.5432C95.9867 35.0404 96.1668 36 96.8871 36C97.6075 36 97.7875 35.0404 97.7875 31.5432C97.7875 27.2232 97.8474 27.0858 99.2881 27.0858C100.129 27.0858 100.789 26.7428 100.789 26.4004C100.789 25.9889 99.1678 25.7142 97.1869 25.7142C95.206 25.7142 93.5852 25.9889 93.5852 26.4004Z" fill="#2F2F2F"/>
<path d="M105.198 28.7316C106.216 30.4457 107.089 32.7085 107.089 33.8744C107.089 35.3144 107.453 36 108.181 36C108.909 36 109.272 35.3144 109.272 33.9428C109.272 32.7774 109.927 30.6514 110.728 29.143C112.475 25.9889 112.475 25.7142 111.237 25.7142C110.728 25.7142 109.782 26.7428 109.127 27.9088L108.036 30.1716L106.798 27.9088C106.144 26.7428 105.052 25.7142 104.47 25.7142C103.524 25.7142 103.67 26.263 105.198 28.7316Z" fill="#2F2F2F"/>
</g>
<defs>
<clipPath id="clip0_3_13">
<rect width="125" height="36" fill="white"/>
</clipPath>
</defs>
</svg>
